<svg width="88" height="91" viewBox="0 0 88 91" fill="none" xmlns="http://www.w3.org/2000/svg">
<g filter="url(#filter0_d)">
<rect x="4" width="80" height="80" rx="16" fill="url(#paint0_linear)"/>
</g>
<g clip-path="url(#clip0)">
<path d="M58.8242 42.1456H54.0625V46.0195H64.8072C66.1961 44.3703 67 42.2554 67 40C67 36.6593 65.2383 33.6255 62.4203 31.9593C62.7513 30.6268 62.6255 29.2129 62.0397 27.93C61.4133 26.5585 60.3278 25.4864 58.9832 24.8813C58.8465 22.9154 58.0396 21.08 56.6576 19.6305C55.0403 17.9342 52.8583 17 50.5137 17C48.6494 17 46.8774 17.6151 45.4375 18.6884V27.6016H49.6602V25.7148C49.6602 24.9706 50.2635 24.3672 51.0078 24.3672C51.7521 24.3672 52.3555 24.9706 52.3555 25.7148V27.6016H52.625C53.3693 27.6016 53.9727 28.205 53.9727 28.9492C53.9727 29.6935 53.3693 30.2969 52.625 30.2969H45.4375C43.9513 30.2969 42.7422 29.0878 42.7422 27.6016V18.8261C41.2714 17.6677 39.4289 17 37.4863 17C35.1417 17 32.9597 17.9342 31.3424 19.6306C29.9604 21.0801 29.1535 22.9154 29.0168 24.8814C27.6722 25.4865 26.5866 26.5586 25.9603 27.9301C25.4969 28.9449 25.3226 30.0415 25.4332 31.1151H34.2071V27.5117C34.2071 26.7675 34.8105 26.1641 35.5548 26.1641C36.299 26.1641 36.9024 26.7675 36.9024 27.5117V31.115H37.7109C39.1971 31.115 40.4062 32.3241 40.4062 33.8103V35.2478H41.7195C42.4638 35.2478 43.0672 35.8512 43.0672 36.5955C43.0672 37.3397 42.4638 37.9431 41.7195 37.9431H40.4062V40.3689C40.4062 41.1132 39.8029 41.7166 39.0586 41.7166C38.3143 41.7166 37.7109 41.1132 37.7109 40.3689V33.8103H32.6796V37.8533C32.6796 38.5975 32.0762 39.2009 31.3319 39.2009C30.5877 39.2009 29.9843 38.5975 29.9843 37.8533V33.8103C29.9843 33.8103 23.4033 33.8059 23.3494 33.7993C21.8645 35.4734 21 37.6611 21 40C21 43.3407 22.7617 46.3745 25.5797 48.0407C25.2487 49.3732 25.3745 50.7871 25.9603 52.07C26.0856 52.3444 26.2302 52.6063 26.3907 52.8555H35.0156V46.8281H32.6797C31.9354 46.8281 31.332 46.2247 31.332 45.4805C31.332 44.7362 31.9354 44.1328 32.6797 44.1328H35.0156C36.5018 44.1328 37.7109 45.3419 37.7109 46.8281V48.4942H38.8789C39.6232 48.4942 40.2266 49.0976 40.2266 49.8418C40.2266 50.5861 39.6232 51.1895 38.8789 51.1895H37.7109V52.8555C37.7109 54.3417 36.5018 55.5508 35.0156 55.5508H29.0591C29.2767 57.3527 30.0623 59.0267 31.3424 60.3694C32.9597 62.0658 35.1417 63 37.4863 63C39.3894 63 41.1967 62.3595 42.6523 61.2443V54.2852C42.6523 52.799 43.8615 51.5898 45.3477 51.5898H47.7734C48.5177 51.5898 49.1211 52.1932 49.1211 52.9375C49.1211 53.6818 48.5177 54.2852 47.7734 54.2852H45.3477V61.2443C46.8033 62.3595 48.6106 63 50.5137 63C52.8583 63 55.0403 62.0658 56.6576 60.3694C58.0396 58.9199 58.8465 57.0845 58.9832 55.1186C60.3278 54.5135 61.4134 53.4414 62.0397 52.0699C62.5277 51.0015 62.6952 49.8422 62.5468 48.7148H45.3473C43.8611 48.7148 42.652 47.5056 42.652 46.0194V43.5938C42.652 42.8495 43.2554 42.2461 43.9996 42.2461C44.7439 42.2461 45.3473 42.8495 45.3473 43.5938V46.0195H51.3672V37.1144H48.6719C47.9276 37.1144 47.3242 36.511 47.3242 35.7667C47.3242 35.0225 47.9276 34.4191 48.6719 34.4191H51.3672C52.8534 34.4191 54.0625 35.6282 54.0625 37.1144V39.4503H57.4765V36.8555C57.4765 36.1112 58.0799 35.5078 58.8241 35.5078C59.5684 35.5078 60.1718 36.1112 60.1718 36.8555C60.1718 36.8555 60.1719 40.6913 60.1719 40.7979C60.1719 41.5423 59.5685 42.1456 58.8242 42.1456Z" fill="white"/>
</g>
<defs>
<filter id="filter0_d" x="0" y="0" width="88" height="91" filterUnits="userSpaceOnUse" color-interpolation-filters="sRGB">
<feFlood flood-opacity="0" result="BackgroundImageFix"/>
<feColorMatrix in="SourceAlpha" type="matrix" values="0 0 0 0 0 0 0 0 0 0 0 0 0 0 0 0 0 0 127 0"/>
<feOffset dy="7"/>
<feGaussianBlur stdDeviation="2"/>
<feColorMatrix type="matrix" values="0 0 0 0 0 0 0 0 0 0 0 0 0 0 0 0 0 0 1 0"/>
<feBlend mode="normal" in2="BackgroundImageFix" result="effect1_dropShadow"/>
<feBlend mode="normal" in="SourceGraphic" in2="effect1_dropShadow" result="shape"/>
</filter>
<linearGradient id="paint0_linear" x1="44" y1="-4.41852e-06" x2="44" y2="80" gradientUnits="userSpaceOnUse">
<stop stop-color="#E249FA"/>
<stop offset="1" stop-color="#6A8BFF"/>
</linearGradient>
<clipPath id="clip0">
<rect width="46" height="46" fill="white" transform="translate(21 17)"/>
</clipPath>
</defs>
</svg>
