<svg width="88" height="91" viewBox="0 0 88 91" fill="none" xmlns="http://www.w3.org/2000/svg">
<g filter="url(#filter0_d)">
<rect x="4" width="80" height="80" rx="16" fill="url(#paint0_linear)"/>
</g>
<path d="M61.25 18H29.625C28.8807 18 28.2773 18.6034 28.2773 19.3477V25.2773H26.75C26.0057 25.2773 25.4023 25.8807 25.4023 26.625C25.4023 27.3693 26.0057 27.9727 26.75 27.9727H28.2773V32.4648H26.75C26.0057 32.4648 25.4023 33.0682 25.4023 33.8125C25.4023 34.5568 26.0057 35.1602 26.75 35.1602H28.2773V39.6523H26.75C26.0057 39.6523 25.4023 40.2557 25.4023 41C25.4023 41.7443 26.0057 42.3477 26.75 42.3477H28.2773V46.8398H26.75C26.0057 46.8398 25.4023 47.4432 25.4023 48.1875C25.4023 48.9318 26.0057 49.5352 26.75 49.5352H28.2773V54.0273H26.75C26.0057 54.0273 25.4023 54.6307 25.4023 55.375C25.4023 56.1193 26.0057 56.7227 26.75 56.7227H28.2773V62.6523C28.2773 63.3966 28.8807 64 29.625 64H61.25C61.9943 64 62.5977 63.3966 62.5977 62.6523V19.3477C62.5977 18.6034 61.9943 18 61.25 18ZM52.625 51.6914C51.8807 51.6914 51.2773 51.088 51.2773 50.3438C51.2773 46.7665 49.093 43.0664 45.4375 43.0664C41.782 43.0664 39.5977 46.7665 39.5977 50.3438C39.5977 51.088 38.9943 51.6914 38.25 51.6914C37.5057 51.6914 36.9023 51.088 36.9023 50.3438C36.9023 46.9198 38.4655 43.3722 41.328 41.561C39.9415 40.39 39.0586 38.6403 39.0586 36.6875C39.0586 33.1702 41.9202 30.3086 45.4375 30.3086C48.9548 30.3086 51.8164 33.1702 51.8164 36.6875C51.8164 38.6403 50.9335 40.39 49.547 41.561C52.4096 43.3723 53.9727 46.9193 53.9727 50.3438C53.9727 51.088 53.3693 51.6914 52.625 51.6914Z" fill="white"/>
<path d="M45.4375 40.3711C47.4719 40.3711 49.1211 38.7219 49.1211 36.6875C49.1211 34.6531 47.4719 33.0039 45.4375 33.0039C43.4031 33.0039 41.7539 34.6531 41.7539 36.6875C41.7539 38.7219 43.4031 40.3711 45.4375 40.3711Z" fill="white"/>
<defs>
<filter id="filter0_d" x="0" y="0" width="88" height="91" filterUnits="userSpaceOnUse" color-interpolation-filters="sRGB">
<feFlood flood-opacity="0" result="BackgroundImageFix"/>
<feColorMatrix in="SourceAlpha" type="matrix" values="0 0 0 0 0 0 0 0 0 0 0 0 0 0 0 0 0 0 127 0"/>
<feOffset dy="7"/>
<feGaussianBlur stdDeviation="2"/>
<feColorMatrix type="matrix" values="0 0 0 0 0 0 0 0 0 0 0 0 0 0 0 0 0 0 1 0"/>
<feBlend mode="normal" in2="BackgroundImageFix" result="effect1_dropShadow"/>
<feBlend mode="normal" in="SourceGraphic" in2="effect1_dropShadow" result="shape"/>
</filter>
<linearGradient id="paint0_linear" x1="44" y1="-4.41852e-06" x2="44" y2="80" gradientUnits="userSpaceOnUse">
<stop stop-color="#E249FA"/>
<stop offset="1" stop-color="#6A8BFF"/>
</linearGradient>
</defs>
</svg>
