<svg width="88" height="91" viewBox="0 0 88 91" fill="none" xmlns="http://www.w3.org/2000/svg">
<g filter="url(#filter0_d)">
<rect x="4" width="80" height="80" rx="16" fill="url(#paint0_linear)"/>
</g>
<g clip-path="url(#clip0)">
<path d="M33.4623 29.3086H32.8855L31.8076 34.6992H34.5401L33.4623 29.3086Z" fill="white"/>
<path d="M55.2641 40.0898C55.846 41.653 56.62 42.9184 57.4766 43.9951C58.3331 42.9184 59.197 41.6529 59.7789 40.0898H55.2641Z" fill="white"/>
<path d="M62.9571 25.1758H46.2207L49.7104 53.1782C49.7721 54.3235 49.459 55.4018 48.7115 56.246L42.8018 63H62.9571C65.1864 63 67 61.1864 67 58.957V29.3086C67 27.0792 65.1864 25.1758 62.9571 25.1758ZM62.9571 40.0898H62.5972C61.8303 42.55 60.6143 44.4751 59.3506 45.9928C60.3405 46.8978 61.3992 47.6403 62.4517 48.4719C63.0321 48.9365 63.1269 49.784 62.6609 50.3657C62.1972 50.9466 61.3463 51.0407 60.7671 50.575C59.6235 49.6723 58.5501 48.9167 57.4766 47.9317C56.4031 48.9167 55.4195 49.6723 54.2759 50.575C53.6967 51.0407 52.8459 50.9466 52.3821 50.3657C51.9162 49.784 52.011 48.9365 52.5913 48.4719C53.6439 47.6403 54.6126 46.8978 55.6026 45.9928C54.3389 44.4752 53.2126 42.5501 52.4459 40.0898H52.086C51.3411 40.0898 50.7383 39.4871 50.7383 38.7422C50.7383 37.9973 51.3411 37.3945 52.086 37.3945H56.1289V36.0469C56.1289 35.302 56.7317 34.6992 57.4766 34.6992C58.2215 34.6992 58.8243 35.302 58.8243 36.0469V37.3945H62.9571C63.702 37.3945 64.3047 37.9973 64.3047 38.7422C64.3047 39.4871 63.702 40.0898 62.9571 40.0898Z" fill="white"/>
<path d="M42.9366 20.5416C42.6852 18.5227 40.9599 17 38.9253 17H25.043C22.8136 17 21 18.8136 21 21.043V50.8711C21 53.1005 22.8136 54.9141 25.043 54.9141C33.0993 54.9141 38.8948 54.9141 46.2956 54.9141C46.6888 54.4647 47.0183 54.1833 47.0322 53.5967C47.0356 53.4496 42.9548 20.6875 42.9366 20.5416ZM37.5262 42.7588C36.8116 42.9059 36.0877 42.442 35.9404 41.702L35.0791 37.3945H31.2687L30.4074 41.702C30.2626 42.4311 29.5598 42.9101 28.8215 42.7588C28.0924 42.6127 27.6186 41.9034 27.7647 41.173L30.4599 27.6964C30.5862 27.0674 31.139 26.6133 31.7812 26.6133H34.5664C35.2086 26.6133 35.7614 27.0674 35.8877 27.6964L38.5831 41.173C38.7291 41.9034 38.2554 42.6127 37.5262 42.7588Z" fill="white"/>
<path d="M36.7461 57.6094L36.9774 59.4584C37.1316 60.6968 37.9543 61.9595 39.3077 62.59C41.8618 59.7785 40.3166 61.4794 43.8322 57.6094H36.7461Z" fill="white"/>
</g>
<defs>
<filter id="filter0_d" x="0" y="0" width="88" height="91" filterUnits="userSpaceOnUse" color-interpolation-filters="sRGB">
<feFlood flood-opacity="0" result="BackgroundImageFix"/>
<feColorMatrix in="SourceAlpha" type="matrix" values="0 0 0 0 0 0 0 0 0 0 0 0 0 0 0 0 0 0 127 0"/>
<feOffset dy="7"/>
<feGaussianBlur stdDeviation="2"/>
<feColorMatrix type="matrix" values="0 0 0 0 0 0 0 0 0 0 0 0 0 0 0 0 0 0 1 0"/>
<feBlend mode="normal" in2="BackgroundImageFix" result="effect1_dropShadow"/>
<feBlend mode="normal" in="SourceGraphic" in2="effect1_dropShadow" result="shape"/>
</filter>
<linearGradient id="paint0_linear" x1="44" y1="-4.41852e-06" x2="44" y2="80" gradientUnits="userSpaceOnUse">
<stop stop-color="#E249FA"/>
<stop offset="1" stop-color="#6A8BFF"/>
</linearGradient>
<clipPath id="clip0">
<rect width="46" height="46" fill="white" transform="translate(21 17)"/>
</clipPath>
</defs>
</svg>
